inDegrees=yes
name=ik_MT_2026-08-11_12h33_01210270-000-000_orientations
DataType=double
version=3
OpenSimVersion=4.5
endheader
time	pelvis_tilt	pelvis_list	pelvis_rotation	pelvis_tx	pelvis_ty	pelvis_tz	hip_flexion_r	hip_adduction_r	hip_rotation_r	knee_angle_r	knee_angle_r_beta	ankle_angle_r	subtalar_angle_r	mtp_angle_r	hip_flexion_l	hip_adduction_l	hip_rotation_l	knee_angle_l	knee_angle_l_beta	ankle_angle_l	subtalar_angle_l	mtp_angle_l	lumbar_extension	lumbar_bending	lumbar_rotation	arm_flex_r	arm_add_r	arm_rot_r	elbow_flex_r	pro_sup_r	wrist_flex_r	wrist_dev_r	arm_flex_l	arm_add_l	arm_rot_l	elbow_flex_l	pro_sup_l	wrist_flex_l	wrist_dev_l
152.975	-0.6575569445131163	3.710944106889313	-1271.307860770335	0	0.9399999999999999	0	1.222460030025237	9.041172956461798	-6.418081581284261	4.653912833732151	0.08122610204944546	5.621415881776874	0	0	26.88658097221531	-23.2434876924517	-2.450847877905256	47.25216920391594	0.824705931317801	4.335082304906075	0	0	-2.492873239720272	8.958566936457665	4.375470315651971	-46.57514826158338	31.01948945303242	39.84392469314047	0.0440845053174168	45.0000002553401	0	0	-5.493880456869085	-2.618066284008551	0.6223154287432593	0.09219450966330124	45.0000002553401	0	0
153	-0.5032047389792227	3.807827128359118	-1272.51924037144	0	0.9399999999999999	0	0.6849573798907953	9.18622495542192	-5.601279024262897	5.113915011704703	0.08925465462141143	6.365046714128079	0	0	26.38531706581148	-21.79218911941115	-4.895026073564412	38.62759626074875	0.6741787368811158	2.500393467851073	0	0	-2.79027508274111	9.043088725438487	4.705339128576474	-46.11958801232299	30.61288358210003	40.52045815393893	0.04638905842613973	45.0000002553401	0	0	-5.410327093084576	-2.397622095163053	0.2492917947939218	0.0982333037286139	45.0000002553401	0	0
153.025	-0.2901818223931417	3.688878416097083	-1273.875454706441	0	0.9399999999999999	0	0.08782531559994271	9.161134162778279	-4.502595751190158	5.409345650429718	0.0944108919784328	7.10386389563914	0	0	25.11188897476291	-18.75825627223333	-6.636097693868276	28.25248128241254	0.4930988202361686	-0.3655386472639985	0	0	-2.953795029338464	8.856507877054881	5.105095949206913	-45.68032052766743	30.21151180646184	41.12454788554195	0.04791095040059058	45.0000002553401	0	0	-5.369708667943439	-2.290927452103571	-0.1673105147610501	0.105133312666267	45.0000002553401	0	0
153.05	-0.557785227660038	3.666864873717365	-1275.35179731668	0	0.9399999999999999	0	-1.188355608984855	9.170194884579196	-2.981684197014288	5.445385572155963	0.0950399072747168	7.785990337246996	0	0	23.24741120565795	-14.74771977544058	-5.945365699435289	17.63087000625495	0.3077167316002621	-3.70179138788246	0	0	-3.500021313620097	8.632662055146525	5.488325982672086	-45.384408401542	29.68360626915024	41.65853051358904	0.04834288439445406	45.0000002553401	0	0	-5.432410931571914	-2.21283821567284	-0.7011906620887803	0.1120669921817293	45.0000002553401	0	0
153.075	-0.6877141372652277	3.775495569906596	-1276.895508746214	0	0.9399999999999999	0	-2.485631648447086	9.322917359797897	-1.218152946776029	5.312743540575869	0.09272486709710986	8.398501763287404	0	0	21.6516711865299	-11.3488168638921	-2.903135280188303	8.881794328442222	0.1550165545162754	-6.624443488630961	0	0	-3.943666255754842	8.560363310600497	5.785491475396424	-45.16905058732871	29.10042390211391	42.22758267341109	0.04860620936697788	45.0000002553401	0	0	-5.495985178293832	-2.069164292990182	-1.284989189359312	0.1205138489949683	45.0000002553401	0	0
153.1	-1.018505731813051	4.033327604915327	-1278.406099527962	0	0.9399999999999999	0	-3.965894740733142	9.563280306763902	0.3831551641123297	5.442084615254494	0.09498229470831974	9.215821774763736	0	0	19.60413679492605	-8.775036329349973	1.074173341388349	1.475385525851705	0.02575033516238017	-10.16452630121701	0	0	-4.530567503816082	8.53732963350434	5.926461900991406	-45.13612560441513	28.5319239300735	42.87033725142292	0.04940047931644625	45.0000002553401	0	0	-5.608153456554025	-1.853672702671592	-1.900098535378467	0.1303461860001574	45.0000002553401	0	0
153.125	-1.851246008927335	4.509210608810364	-1279.814917544836	0	0.9399999999999999	0	-5.821436061363259	9.794501185063611	1.7710896263989	6.062985540762914	0.1058190601871217	10.23862674684567	0	0	17.96169279197105	-6.927233953555884	4.711501196450418	-3.387437764776624	-0.05912194220174928	-13.751730030025	0	0	-5.592262210544363	8.398312352517221	6.045825835634136	-45.11332248239731	28.21694909551004	43.40497024323584	0.05098611901613108	45.0000002553401	0	0	-5.63736066138063	-1.759568777153101	-2.330972612909762	0.1414954505826881	45.0000002553401	0	0
153.15	-2.208421962271967	4.81473604048048	-1281.043735792296	0	0.9399999999999999	0	-6.937587237434517	10.0250178741558	2.91027293781531	7.262016371011014	0.1267460960078723	11.54734545890622	0	0	17.30596334862198	-5.092489880772604	5.850926902502643	-5.53910486818526	-0.09667561756307928	-15.55569742342485	0	0	-6.210218220386636	8.18639030664148	5.968526505313937	-44.90495589101688	28.03811702061554	43.75155822265925	0.05255193247167578	45.0000002553401	0	0	-5.421808207984719	-1.673501513606225	-2.581583544948852	0.1507751141625676	45.0000002553401	0	0
